<?xml version="1.0" encoding="utf-8"?>
<!-- Generator: Adobe Illustrator 18.1.0, SVG Export Plug-In . SVG Version: 6.00 Build 0)  -->
<!DOCTYPE svg PUBLIC "-//W3C//DTD SVG 1.1//EN" "http://www.w3.org/Graphics/SVG/1.1/DTD/svg11.dtd">
<svg version="1.1" id="Layer_1" xmlns="http://www.w3.org/2000/svg" xmlns:xlink="http://www.w3.org/1999/xlink" x="0px" y="0px"
	 viewBox="0 0 500 700" enable-background="new 0 0 500 700" xml:space="preserve">
<path fill="#FFFFFF" stroke="#000000" stroke-width="5" stroke-miterlimit="10" d="M188.5,246v286c0,13.2-10.3,24.5-23.5,24.5h-1.5
	v23.8c0,13.2-10.8,24-24,24s-24-10.8-24-24v-23.8H115c-13.2,0-24.5-11.3-24.5-24.5V246c0-13.2,11.3-23.5,24.5-23.5h0.5V195
	c0-13.2,11-24,24.2-24c6.6,0,12.5,2.7,16.8,7c4.3,4.3,6.9,10.3,6.9,17v27.5h1.5C178.2,222.5,188.5,232.8,188.5,246z"/>
<path fill="#FFFFFF" stroke="#000000" stroke-width="5" stroke-miterlimit="10" d="M99.3,203L99.3,203c-4.8,0-8.8-3.9-8.8-8.7v-35.5
	c0-4.8,3.9-8.7,8.7-8.7h0c4.8,0,8.7,3.9,8.7,8.7v35.5C108,199.1,104.1,203,99.3,203z"/>
<path fill="#FFFFFF" stroke="#000000" stroke-width="5" stroke-miterlimit="10" d="M179.8,203L179.8,203c-4.8,0-8.8-3.9-8.8-8.7
	v-35.5c0-4.8,3.9-8.7,8.7-8.7h0c4.8,0,8.7,3.9,8.7,8.7v35.5C188.5,199.1,184.6,203,179.8,203z"/>
<path fill="#FFFFFF" stroke="#000000" stroke-width="5" stroke-miterlimit="10" d="M99.3,619L99.3,619c-4.8,0-8.8-3.9-8.8-8.8v-35.5
	c0-4.8,3.9-8.8,8.7-8.8h0c4.8,0,8.7,3.9,8.7,8.8v35.5C108,615.1,104.1,619,99.3,619z"/>
<path fill="#FFFFFF" stroke="#000000" stroke-width="5" stroke-miterlimit="10" d="M179.8,619L179.8,619c-4.8,0-8.8-3.9-8.8-8.8
	v-35.5c0-4.8,3.9-8.8,8.7-8.8h0c4.8,0,8.7,3.9,8.7,8.8v35.5C188.5,615.1,184.6,619,179.8,619z"/>
<path fill="#FFFFFF" stroke="#000000" stroke-width="5" stroke-miterlimit="10" d="M419.5,249v286c0,13.2-10.3,24.5-23.5,24.5h-1.5
	v23.8c0,13.2-10.8,24-24,24s-24-10.8-24-24v-23.8H346c-13.2,0-24.5-11.3-24.5-24.5V249c0-13.2,11.3-23.5,24.5-23.5h0.5V198
	c0-13.2,11-24,24.2-24c6.6,0,12.5,2.7,16.8,7c4.3,4.3,6.9,10.3,6.9,17v27.5h1.5C409.2,225.5,419.5,235.8,419.5,249z"/>
<path fill="#FFFFFF" stroke="#000000" stroke-width="5" stroke-miterlimit="10" d="M330.2,206L330.2,206c-4.8,0-8.8-3.9-8.8-8.7
	v-35.5c0-4.8,3.9-8.7,8.8-8.7l0,0c4.8,0,8.8,3.9,8.8,8.7v35.5C339,202.1,335.1,206,330.2,206z"/>
<path fill="#FFFFFF" stroke="#000000" stroke-width="5" stroke-miterlimit="10" d="M410.8,206L410.8,206c-4.8,0-8.8-3.9-8.8-8.7
	v-35.5c0-4.8,3.9-8.7,8.8-8.7l0,0c4.8,0,8.8,3.9,8.8,8.7v35.5C419.5,202.1,415.6,206,410.8,206z"/>
<path fill="#FFFFFF" stroke="#000000" stroke-width="5" stroke-miterlimit="10" d="M330.2,622L330.2,622c-4.8,0-8.8-3.9-8.8-8.8
	v-35.5c0-4.8,3.9-8.8,8.8-8.8l0,0c4.8,0,8.8,3.9,8.8,8.8v35.5C339,618.1,335.1,622,330.2,622z"/>
<path fill="#FFFFFF" stroke="#000000" stroke-width="5" stroke-miterlimit="10" d="M410.8,622L410.8,622c-4.8,0-8.8-3.9-8.8-8.8
	v-35.5c0-4.8,3.9-8.8,8.8-8.8l0,0c4.8,0,8.8,3.9,8.8,8.8v35.5C419.5,618.1,415.6,622,410.8,622z"/>
<g>
	<path fill="#FFFFFF" stroke="#000000" stroke-width="2" stroke-miterlimit="10" d="M98.1,297.2c-3.5-10,37-39.3,49.7-34.7
		c6,2.2,4.5,0.5,13.9,11.6s-5.8,17.3-11.6,12.6c-4.2-3.4-12.6-4.4-16.3-3.7c-4.6,1-7.5,4.4-15.8,14.2
		C113.2,303,102.8,310.9,98.1,297.2z"/>
	<path fill="#FFFFFF" stroke="#000000" stroke-width="2" stroke-miterlimit="10" d="M170.6,278.7c-4,3.7-0.4,6.8,3.5,7.4
		c3.9,0.6,6.8-0.2,7-3c0.2-3.4-1.2-7.3-4.5-7.3C172.9,275.7,170.6,278.7,170.6,278.7z"/>
	<path fill="#FFFFFF" stroke="#000000" stroke-width="2" stroke-miterlimit="10" d="M170.6,271c1.3-2.5-1-3.3-3-3
		c-2,0.4-3.2,1.3-2.8,2.7c0.5,1.7,1.9,3.3,3.5,2.7C170,272.9,170.6,271,170.6,271z"/>
	<path fill="#FFFFFF" stroke="#000000" stroke-width="2" stroke-miterlimit="10" d="M159,260.2c1.1-2.1-0.8-2.8-2.5-2.4
		s-2.7,1.1-2.3,2.2c0.4,1.4,1.5,2.7,2.9,2.3C158.5,261.8,159,260.2,159,260.2z"/>
	<path fill="#FFFFFF" stroke="#000000" stroke-width="2" stroke-miterlimit="10" d="M165,264.9c1.1-2.2-0.9-2.9-2.6-2.5
		s-2.8,1.1-2.4,2.3c0.4,1.4,1.6,2.8,3,2.4C164.5,266.5,165,264.9,165,264.9z"/>
	<path fill="#FFFFFF" stroke="#000000" stroke-width="2" stroke-miterlimit="10" d="M152.2,257.2c1-1.9-0.8-2.5-2.3-2.2
		s-2.5,1-2.1,2c0.4,1.3,1.4,2.5,2.6,2.1C151.8,258.6,152.2,257.2,152.2,257.2z"/>
</g>
<g>
	<path fill="#FFFFFF" stroke="#000000" stroke-width="2" stroke-miterlimit="10" d="M411.9,302.2c3.5-10-37-39.3-49.7-34.7
		c-6,2.2-4.5,0.5-13.9,11.6s5.8,17.3,11.6,12.6c4.2-3.4,12.6-4.4,16.3-3.7c4.6,1,7.5,4.4,15.8,14.2
		C396.8,308,407.2,315.9,411.9,302.2z"/>
	<path fill="#FFFFFF" stroke="#000000" stroke-width="2" stroke-miterlimit="10" d="M339.4,283.7c4,3.7,0.4,6.8-3.5,7.4
		c-3.9,0.6-6.8-0.2-7-3c-0.2-3.4,1.2-7.3,4.5-7.3C337.1,280.7,339.4,283.7,339.4,283.7z"/>
	<path fill="#FFFFFF" stroke="#000000" stroke-width="2" stroke-miterlimit="10" d="M339.3,276c-1.3-2.5,1-3.3,3-3
		c2,0.4,3.2,1.3,2.8,2.7c-0.5,1.7-1.9,3.3-3.5,2.7C340,277.9,339.3,276,339.3,276z"/>
	<path fill="#FFFFFF" stroke="#000000" stroke-width="2" stroke-miterlimit="10" d="M351,265.2c-1.1-2.1,0.8-2.8,2.5-2.4
		c1.7,0.3,2.7,1.1,2.3,2.2c-0.4,1.4-1.5,2.7-2.9,2.3C351.5,266.8,351,265.2,351,265.2z"/>
	<path fill="#FFFFFF" stroke="#000000" stroke-width="2" stroke-miterlimit="10" d="M345,269.9c-1.1-2.2,0.9-2.9,2.6-2.5
		c1.7,0.3,2.8,1.1,2.4,2.3c-0.4,1.4-1.6,2.8-3,2.4C345.5,271.5,345,269.9,345,269.9z"/>
	<path fill="#FFFFFF" stroke="#000000" stroke-width="2" stroke-miterlimit="10" d="M357.8,262.2c-1-1.9,0.8-2.5,2.3-2.2
		c1.5,0.3,2.5,1,2.1,2c-0.4,1.3-1.4,2.5-2.6,2.1C358.2,263.6,357.8,262.2,357.8,262.2z"/>
</g>
<g>
	<path fill="#FFFFFF" stroke="#000000" stroke-width="2" stroke-miterlimit="10" d="M98.1,486.4c-3.5,10,37,39.3,49.7,34.7
		c6-2.2,4.5-0.5,13.9-11.6c9.5-11-5.8-17.3-11.6-12.6c-4.2,3.4-12.6,4.4-16.3,3.7c-4.6-1-7.5-4.4-15.8-14.2
		C113.2,480.7,102.8,472.8,98.1,486.4z"/>
	<path fill="#FFFFFF" stroke="#000000" stroke-width="2" stroke-miterlimit="10" d="M170.6,504.9c-4-3.7-0.4-6.8,3.5-7.4
		c3.9-0.6,6.8,0.2,7,3c0.2,3.4-1.2,7.3-4.5,7.3C172.9,508,170.6,504.9,170.6,504.9z"/>
	<path fill="#FFFFFF" stroke="#000000" stroke-width="2" stroke-miterlimit="10" d="M170.6,512.6c1.3,2.5-1,3.3-3,3
		c-2-0.4-3.2-1.3-2.8-2.7c0.5-1.7,1.9-3.3,3.5-2.7C170,510.8,170.6,512.6,170.6,512.6z"/>
	<path fill="#FFFFFF" stroke="#000000" stroke-width="2" stroke-miterlimit="10" d="M159,523.4c1.1,2.1-0.8,2.8-2.5,2.4
		c-1.7-0.3-2.7-1.1-2.3-2.2c0.4-1.4,1.5-2.7,2.9-2.3C158.5,521.9,159,523.4,159,523.4z"/>
	<path fill="#FFFFFF" stroke="#000000" stroke-width="2" stroke-miterlimit="10" d="M165,518.8c1.1,2.2-0.9,2.9-2.6,2.5
		s-2.8-1.1-2.4-2.3c0.4-1.4,1.6-2.8,3-2.4C164.5,517.1,165,518.8,165,518.8z"/>
	<path fill="#FFFFFF" stroke="#000000" stroke-width="2" stroke-miterlimit="10" d="M152.2,526.5c1,1.9-0.8,2.5-2.3,2.2
		c-1.5-0.3-2.5-1-2.1-2c0.4-1.3,1.4-2.5,2.6-2.1C151.8,525.1,152.2,526.5,152.2,526.5z"/>
</g>
<g>
	<path fill="#FFFFFF" stroke="#000000" stroke-width="2" stroke-miterlimit="10" d="M411.9,490.4c3.5,10-37,39.3-49.7,34.7
		c-6-2.2-4.5-0.5-13.9-11.6c-9.5-11,5.8-17.3,11.6-12.6c4.2,3.4,12.6,4.4,16.3,3.7c4.6-1,7.5-4.4,15.8-14.2
		C396.8,484.7,407.2,476.8,411.9,490.4z"/>
	<path fill="#FFFFFF" stroke="#000000" stroke-width="2" stroke-miterlimit="10" d="M339.4,508.9c4-3.7,0.4-6.8-3.5-7.4
		c-3.9-0.6-6.8,0.2-7,3c-0.2,3.4,1.2,7.3,4.5,7.3C337.1,512,339.4,508.9,339.4,508.9z"/>
	<path fill="#FFFFFF" stroke="#000000" stroke-width="2" stroke-miterlimit="10" d="M339.3,516.6c-1.3,2.5,1,3.3,3,3
		c2-0.4,3.2-1.3,2.8-2.7c-0.5-1.7-1.9-3.3-3.5-2.7C340,514.8,339.3,516.6,339.3,516.6z"/>
	<path fill="#FFFFFF" stroke="#000000" stroke-width="2" stroke-miterlimit="10" d="M351,527.4c-1.1,2.1,0.8,2.8,2.5,2.4
		c1.7-0.3,2.7-1.1,2.3-2.2c-0.4-1.4-1.5-2.7-2.9-2.3C351.5,525.9,351,527.4,351,527.4z"/>
	<path fill="#FFFFFF" stroke="#000000" stroke-width="2" stroke-miterlimit="10" d="M345,522.8c-1.1,2.2,0.9,2.9,2.6,2.5
		c1.7-0.3,2.8-1.1,2.4-2.3c-0.4-1.4-1.6-2.8-3-2.4C345.5,521.1,345,522.8,345,522.8z"/>
	<path fill="#FFFFFF" stroke="#000000" stroke-width="2" stroke-miterlimit="10" d="M357.8,530.5c-1,1.9,0.8,2.5,2.3,2.2
		c1.5-0.3,2.5-1,2.1-2c-0.4-1.3-1.4-2.5-2.6-2.1C358.2,529.1,357.8,530.5,357.8,530.5z"/>
</g>
<line fill="none" stroke="#000000" stroke-width="3" stroke-linecap="round" stroke-miterlimit="10" x1="253.5" y1="46" x2="253.5" y2="653"/>
<g>
	<path d="M56.1,72.7h11.3c2,0,3.7,0.2,5.2,0.6s2.7,1,3.7,1.8s1.7,1.7,2.2,2.7s0.8,2.2,0.8,3.4c0,1-0.2,2-0.6,2.8s-0.9,1.7-1.6,2.4
		s-1.5,1.3-2.5,1.9s-2.1,0.9-3.3,1.2l11.9,15.8h-6.4L65.4,90h-3.8v15.4h-5.5V72.7z M61.6,88.3h3.2c1.2,0,2.4-0.2,3.4-0.5
		s1.9-0.8,2.7-1.4s1.4-1.3,1.8-2.2s0.6-1.8,0.6-2.9c0-1-0.2-1.9-0.5-2.7s-0.8-1.5-1.4-2.1s-1.3-1-2.2-1.4s-1.8-0.5-2.8-0.5h-4.8
		V88.3z"/>
	<path d="M97.2,105.9c-1.7,0-3.3-0.3-4.8-1s-2.8-1.5-3.9-2.6s-2-2.4-2.6-3.9s-1-3.1-1-4.7c0-2,0.3-3.9,0.9-5.6s1.4-3.2,2.5-4.5
		s2.4-2.2,3.9-2.9s3.2-1.1,5.1-1.1c1.7,0,3.2,0.3,4.5,0.9s2.6,1.4,3.5,2.3s1.8,2.1,2.3,3.4s0.8,2.6,0.8,4H89.7
		c0,1.7,0.2,3.3,0.7,4.7s1,2.7,1.8,3.7s1.7,1.9,2.8,2.5s2.3,0.9,3.6,0.9c1.1,0,2.1-0.2,3.1-0.5s1.9-0.8,2.7-1.4s1.5-1.2,2.1-2
		s1-1.5,1.2-2.3l1.4,0.6c-0.4,1.3-0.9,2.5-1.7,3.6s-1.7,2.1-2.8,3s-2.2,1.5-3.5,2S98.5,105.9,97.2,105.9z M102.2,88.2
		c0-1-0.2-1.8-0.5-2.7s-0.8-1.5-1.4-2.1S99,82.4,98.3,82s-1.6-0.5-2.5-0.5c-0.8,0-1.5,0.2-2.2,0.5s-1.3,0.8-1.9,1.4s-1,1.3-1.3,2.1
		s-0.6,1.7-0.6,2.7L102.2,88.2z"/>
	<path d="M138.8,81.5v2.1H134c0.5,0.7,0.9,1.5,1.2,2.3s0.4,1.7,0.4,2.5c0,1.3-0.3,2.5-0.9,3.6s-1.4,2-2.4,2.8s-2.3,1.4-3.7,1.8
		s-3,0.6-4.7,0.6c-0.6,0-1.3-0.1-1.9-0.2s-1.2-0.2-1.7-0.4c-0.5,0.4-0.9,0.8-1.2,1.4s-0.5,1-0.5,1.6c0,0.5,0.3,0.9,0.8,1.2
		s1.3,0.5,2.3,0.5l9.3,0.4c1.5,0.1,2.7,0.2,3.7,0.5s1.8,0.7,2.4,1.1s1,1.1,1.3,1.7s0.4,1.4,0.4,2.2c0,1.5-0.3,2.8-1,4s-1.7,2.2-3,3
		s-2.9,1.5-4.7,1.9s-3.9,0.7-6.3,0.7c-4.2,0-7.3-0.5-9.3-1.4s-3.1-2.2-3.1-3.7c0-0.7,0.2-1.4,0.5-2s0.8-1.3,1.3-1.8s1.1-1.1,1.8-1.7
		s1.3-1.1,1.9-1.6c-0.5-0.1-0.9-0.3-1.3-0.5s-0.7-0.4-1-0.7s-0.5-0.5-0.7-0.8s-0.3-0.6-0.3-1c0-0.5,0.1-1,0.4-1.6s0.6-1.1,1.1-1.6
		s1-1,1.6-1.4s1.3-0.8,2-1c-1.7-0.7-3-1.7-4-3s-1.4-2.8-1.4-4.4c0-1.2,0.3-2.4,0.9-3.5s1.4-2.1,2.3-2.9s2.2-1.5,3.5-1.9
		s2.8-0.7,4.3-0.7c0.8,0,1.5,0.1,2.2,0.2s1.4,0.2,2.1,0.4s1.2,0.4,1.7,0.6s0.9,0.5,1.1,0.7H138.8z M118.6,105.1
		c-0.4,0.3-0.7,0.6-1,0.9s-0.5,0.7-0.7,1.1s-0.3,0.8-0.4,1.1s-0.2,0.7-0.2,1.1c0,0.6,0.2,1.1,0.6,1.6s1,1,1.8,1.4s1.8,0.7,3,0.9
		s2.6,0.4,4.1,0.4c1.7,0,3.2-0.1,4.5-0.4s2.5-0.6,3.4-1.1s1.6-0.9,2.1-1.5s0.7-1.1,0.7-1.6c0-1.1-0.6-1.9-1.7-2.5s-2.6-0.8-4.6-0.8
		c-1.2,0-2.4,0-3.7-0.1s-2.4-0.1-3.5-0.2s-2-0.2-2.8-0.2S119,105.2,118.6,105.1z M124.8,95.9c0.7,0,1.4-0.2,2-0.5s1.2-0.8,1.7-1.3
		s0.9-1.2,1.2-2s0.4-1.6,0.4-2.4c0-1.2-0.2-2.4-0.5-3.4s-0.8-2-1.4-2.8s-1.2-1.4-2-1.8s-1.6-0.7-2.4-0.7c-0.8,0-1.6,0.2-2.2,0.5
		s-1.1,0.8-1.5,1.4s-0.7,1.3-0.9,2.2s-0.3,1.7-0.3,2.7c0,1.1,0.1,2.2,0.4,3.2s0.7,1.8,1.2,2.6s1.1,1.3,1.8,1.7S124,95.9,124.8,95.9z
		"/>
	<path d="M148.5,80.2v17.9c0,0.6,0.1,1.2,0.4,1.8s0.7,1,1.2,1.4s1.1,0.7,1.8,1s1.4,0.4,2.2,0.4c0.5,0,1-0.1,1.6-0.3s1.1-0.5,1.7-0.9
		s1-0.8,1.5-1.3s0.9-1,1.2-1.6V80.2h5v25.2h-5v-4.7c-0.4,0.7-1,1.4-1.7,2s-1.4,1.2-2.2,1.7s-1.6,0.9-2.4,1.1s-1.6,0.4-2.3,0.4
		c-1.1,0-2.1-0.2-3.1-0.6s-1.8-1-2.5-1.7s-1.3-1.5-1.7-2.5s-0.6-2-0.6-3V80.2H148.5z"/>
	<path d="M176.1,105.3h-5V68.7l3.6-1.4h1.4V105.3z"/>
	<path d="M200.7,105.3h-5v-3.4c-0.6,0.5-1.2,0.9-1.7,1.4s-1.2,0.9-1.9,1.3s-1.4,0.7-2.2,0.9s-1.7,0.4-2.8,0.4c-1,0-1.9-0.2-2.7-0.5
		s-1.5-0.8-2-1.3s-1-1.2-1.3-2s-0.4-1.6-0.4-2.5c0-1.1,0.2-2.1,0.6-2.9s1-1.6,1.8-2.3s1.6-1.3,2.6-1.8s2-1,3.2-1.4s2.3-0.8,3.4-1.1
		s2.3-0.6,3.5-0.9v-1.6c0-1.1-0.1-2.1-0.3-2.9s-0.6-1.4-1-1.9s-0.9-0.8-1.5-1s-1.3-0.3-2-0.3c-0.8,0-1.5,0.1-2.1,0.3
		s-0.9,0.5-1.3,0.9s-0.5,0.8-0.6,1.2s-0.2,0.9-0.2,1.4c0,0.4,0,0.9-0.1,1.3s-0.2,0.8-0.4,1.1s-0.4,0.6-0.8,0.7s-0.7,0.3-1.2,0.3
		c-0.4,0-0.7-0.1-1.1-0.2s-0.6-0.4-0.8-0.6s-0.4-0.6-0.5-0.9s-0.2-0.8-0.2-1.2c0-0.8,0.3-1.6,0.8-2.3s1.3-1.3,2.2-1.9s2-0.9,3.2-1.2
		s2.5-0.5,3.9-0.5c1.7,0,3.1,0.2,4.2,0.5s2.1,0.8,2.8,1.3s1.2,1.3,1.5,2.1s0.5,1.7,0.5,2.7V105.3z M195.7,90.7
		c-0.7,0.2-1.5,0.5-2.2,0.8s-1.5,0.6-2.3,1s-1.4,0.8-2.1,1.2s-1.3,0.9-1.8,1.4s-0.9,1-1.2,1.5s-0.4,1.1-0.4,1.7
		c0,0.6,0.1,1.2,0.3,1.7s0.5,1,0.9,1.5s0.8,0.7,1.3,1s1,0.4,1.5,0.4c0.6,0,1.1-0.1,1.6-0.2s1-0.3,1.5-0.6s1-0.5,1.4-0.9
		s1-0.7,1.5-1.1V90.7z"/>
	<path d="M207.4,80.2h5v4.8c0.5-0.7,1-1.4,1.6-2s1.1-1.2,1.8-1.7s1.2-0.9,1.9-1.1s1.3-0.4,2-0.4c0.5,0,1.1,0.1,1.5,0.2
		s0.9,0.4,1.2,0.7s0.6,0.6,0.8,1s0.3,0.8,0.3,1.2c0,0.8-0.3,1.4-0.8,1.8s-1.2,0.6-2.1,0.6c-0.6,0-1-0.1-1.3-0.2s-0.6-0.2-0.9-0.4
		s-0.6-0.3-0.8-0.4s-0.6-0.2-1.1-0.2c-0.3,0-0.7,0.1-1,0.3s-0.7,0.5-1,0.8s-0.7,0.8-1,1.2s-0.7,1-1,1.6v17.4h-5V80.2z"/>
</g>
<g>
	<path d="M320.4,74.3c-2,0-3.8,0.4-5.4,1.1s-3.1,1.7-4.3,3s-2.2,2.9-2.8,4.7s-1,3.9-1,6.2s0.4,4.4,1.1,6.2s1.7,3.4,3,4.7
		s2.8,2.3,4.5,3s3.6,1.1,5.5,1.1c1.4,0,2.7-0.2,3.9-0.6s2.2-0.9,3.1-1.7V90.5h-6.2v-1.9h11.6v14.4c-1,0.5-1.9,1-2.9,1.4
		s-2,0.7-3.1,1s-2.4,0.5-3.7,0.6s-2.9,0.2-4.6,0.2c-1.8,0-3.5-0.2-5.1-0.6s-3.1-1-4.5-1.7s-2.6-1.6-3.8-2.6s-2.1-2.2-2.8-3.4
		s-1.4-2.6-1.8-4s-0.6-2.9-0.6-4.4s0.2-3,0.6-4.5s1-2.8,1.7-4.1s1.7-2.5,2.8-3.5s2.3-2,3.7-2.8s2.8-1.4,4.4-1.8s3.3-0.6,5.1-0.6
		c1.7,0,3.3,0.2,4.8,0.7s2.8,1.1,4,1.9s2.3,1.7,3.2,2.7s1.7,2.1,2.4,3.2l-2.4,1.6c-1.4-2.6-2.9-4.6-4.6-5.8S322.5,74.3,320.4,74.3z"
		/>
	<path d="M352.1,105.9c-1.9,0-3.7-0.3-5.3-1s-3-1.6-4.2-2.7s-2.1-2.5-2.8-4.1s-1-3.2-1-5c0-1.9,0.3-3.6,1-5.2s1.6-3.1,2.8-4.3
		s2.6-2.2,4.2-2.9s3.4-1.1,5.3-1.1s3.7,0.3,5.3,1s3,1.5,4.2,2.6s2.1,2.4,2.8,3.9s1,3.1,1,4.8c0,1.9-0.3,3.7-1,5.4s-1.6,3.1-2.8,4.4
		s-2.6,2.2-4.2,3S354,105.9,352.1,105.9z M353,104c1,0,1.9-0.3,2.7-0.8s1.5-1.2,2.1-2s1.1-1.8,1.4-3s0.5-2.3,0.5-3.6
		c0-1.8-0.2-3.5-0.5-5.1s-0.8-3-1.5-4.2s-1.6-2.1-2.7-2.8s-2.5-1-4.1-1c-0.8,0-1.7,0.2-2.4,0.7s-1.5,1.1-2.1,2s-1.1,1.8-1.4,3
		s-0.5,2.3-0.5,3.6c0,1.8,0.2,3.5,0.6,5.2s1,3,1.7,4.2s1.6,2.1,2.7,2.8S351.6,104,353,104z"/>
	<path d="M382.4,105.9c-1.9,0-3.7-0.3-5.3-1s-3-1.6-4.2-2.7s-2.1-2.5-2.8-4.1s-1-3.2-1-5c0-1.9,0.3-3.6,1-5.2s1.6-3.1,2.8-4.3
		s2.6-2.2,4.2-2.9s3.4-1.1,5.3-1.1s3.7,0.3,5.3,1s3,1.5,4.2,2.6s2.1,2.4,2.8,3.9s1,3.1,1,4.8c0,1.9-0.3,3.7-1,5.4s-1.6,3.1-2.8,4.4
		s-2.6,2.2-4.2,3S384.3,105.9,382.4,105.9z M383.4,104c1,0,1.9-0.3,2.7-0.8s1.5-1.2,2.1-2s1.1-1.8,1.4-3s0.5-2.3,0.5-3.6
		c0-1.8-0.2-3.5-0.5-5.1s-0.8-3-1.5-4.2s-1.6-2.1-2.7-2.8s-2.5-1-4.1-1c-0.8,0-1.7,0.2-2.4,0.7s-1.5,1.1-2.1,2s-1.1,1.8-1.4,3
		s-0.5,2.3-0.5,3.6c0,1.8,0.2,3.5,0.6,5.2s1,3,1.7,4.2s1.6,2.1,2.7,2.8S382,104,383.4,104z"/>
	<path d="M415.3,80.2v2.1h-6.7v23.1h-5V82.3h-5.3v-2.1h5.3v-3c0-1.4,0.2-2.7,0.7-3.9s1.2-2.3,2-3.2s1.8-1.6,3-2.1s2.4-0.8,3.7-0.8
		c1.1,0,2.1,0.1,3,0.3s1.6,0.5,2.2,0.9s1,0.8,1.4,1.4s0.5,1.1,0.5,1.7c0,0.4-0.1,0.7-0.2,1s-0.3,0.5-0.6,0.7s-0.5,0.4-0.8,0.5
		s-0.6,0.2-1,0.2c-0.6,0-1.1-0.1-1.4-0.4s-0.6-0.5-0.7-0.9s-0.3-0.7-0.4-1.2s-0.2-0.8-0.4-1.2s-0.5-0.7-0.8-0.9s-0.9-0.4-1.5-0.4
		c-0.5,0-1,0.1-1.4,0.4s-0.8,0.7-1.1,1.1s-0.5,1-0.7,1.6s-0.3,1.2-0.3,1.9v6H415.3z"/>
	<path d="M416.6,80.2h5.7l9.7,18.2l7.9-18.2h2.7l-12.8,29.6c-0.5,1.2-1.2,2.3-1.9,3.2s-1.4,1.7-2.2,2.2s-1.6,1-2.4,1.3
		s-1.6,0.4-2.4,0.4c-0.5,0-1.1-0.1-1.6-0.2s-0.9-0.3-1.3-0.6s-0.7-0.6-0.9-0.9s-0.3-0.8-0.3-1.2c0-0.3,0.1-0.7,0.2-1
		s0.3-0.6,0.6-0.9s0.6-0.5,0.9-0.6s0.8-0.2,1.2-0.2c0.5,0,0.9,0.1,1.3,0.2s0.6,0.2,0.8,0.4s0.5,0.3,0.8,0.4s0.7,0.2,1.1,0.2
		c0.5,0,1-0.1,1.4-0.4s0.8-0.7,1.1-1.1s0.6-0.9,0.9-1.5s0.5-1,0.7-1.5l1.7-3.8L416.6,80.2z"/>
</g>
</svg>
