<?xml version="1.0" encoding="utf-8"?>
<!-- Generator: Adobe Illustrator 18.1.0, SVG Export Plug-In . SVG Version: 6.00 Build 0)  -->
<!DOCTYPE svg PUBLIC "-//W3C//DTD SVG 1.1//EN" "http://www.w3.org/Graphics/SVG/1.1/DTD/svg11.dtd">
<svg version="1.1" xmlns="http://www.w3.org/2000/svg" xmlns:xlink="http://www.w3.org/1999/xlink" x="0px" y="0px"
	 viewBox="0 0 700 500" enable-background="new 0 0 700 500" xml:space="preserve">
<g id="Layer_1">
</g>
<g id="Layer_2">
	<path fill="#FF0000" stroke="#FFFFFF" stroke-width="2" stroke-miterlimit="10" d="M62.5,87.5c0,0,37.7,7.9,59.6,9s48.3,2.1,68,1.9
		s42.5-1.1,66-2.9s59.5-7.6,59.5-7.6s-0.6,9.3-3.6,12.8c-3,3.6-0.8,1.5-1.5,3.6c-0.7,2.1-1.8,0.7-2.4,2.8s-3.1,30.5-3.9,34.8
		s-2.4,9.5-3.6,16c-1.2,6.5-3.1,19.1-4.1,29.8c-1,10.6-5.7,55.6-6.5,64c-0.8,8.3-1.9,25.6-5.7,44.1c-3.8,18.4-3.7,25.5-5.1,35.7
		c-1.3,10.2-3.6,31.8-4.3,37.3c-0.7,5.5-3,3.7-3.3,8.1c-0.3,4.4,0,5.9,0.1,11.2c0.1,5.3-4.9,9.7-9.2,11.9c-4.3,2.2-18.5,8.2-42,11.5
		s-46.3,2.6-66.6-0.3c-20.3-2.9-34.3-8.1-41.1-12.8c-6.8-4.7-6.2-7.3-6.4-8.6c-0.2-1.3-0.1-4.4,0.4-8.9c0.5-4.5-1.8-7-3.3-10.3
		c-1.5-3.3-0.7-2.2-2.1-17.4c-1.4-15.2-3.8-38.9-5.1-45.7s-4.3-22.1-5.5-32.5c-1.2-10.4-11.5-103.3-12.5-111.8
		c-1-8.5-3.2-9-3.6-14.2c-0.4-5.3-0.6-11.3-1.3-14.9c-0.8-3.5-1.7-5.2-2.2-10c-0.5-4.8-1-12-0.9-14.7c0.2-2.7-1.4-1.6-1.9-3.4
		s-0.1-0.8-0.6-1.8s-4.1-6.4-5-10.3C61.9,90.8,62.2,89.9,62.5,87.5z"/>
	<path fill="none" stroke="#000000" stroke-width="2" stroke-miterlimit="10" d="M62.1,87.5c0,0,37.7-6.9,59.6-8s48.3-3.1,68-2.9
		s42.5,1.1,66,2.9s60.5,8.6,60.5,8.6"/>
	<path fill="#FF0000" stroke="#FFFFFF" stroke-width="2" stroke-miterlimit="10" d="M70.4,107.8c0,0,35.1,7.9,55.5,9
		c20.4,1.1,45,2.1,63.4,1.9s39.6-1.1,61.5-2.9c21.9-1.8,56.4-8.6,56.4-8.6"/>
	<path fill="#FF0000" stroke="#FFFFFF" stroke-width="2" stroke-miterlimit="10" d="M76.2,154.2c0,0,33.5,7.9,52.9,9
		s42.9,2.1,60.4,1.9c17.5-0.2,37.8-1.1,58.6-2.9s53.8-8.6,53.8-8.6"/>
	<path fill="none" stroke="#FFFFFF" stroke-width="2" stroke-miterlimit="10" d="M83.7,210.9c0,0,31.3,7.9,49.5,9s40.1,2.1,56.5,1.9
		c16.3-0.2,35.3-1.1,54.8-2.9c19.5-1.8,50.3-8.6,50.3-8.6"/>
	<path fill="none" stroke="#FFFFFF" stroke-width="2" stroke-miterlimit="10" d="M84.6,224.4c0,0,30.7,7.9,48.6,9
		c17.9,1.1,39.4,2.1,55.5,1.9c16-0.2,34.7-1.1,53.8-2.9c19.1-1.8,49.4-8.6,49.4-8.6"/>
	<path fill="none" stroke="#FFFFFF" stroke-width="2" stroke-miterlimit="10" d="M85.7,235c0,0,30.5,7.9,48.2,9s39.1,2.1,55,1.9
		c15.9-0.2,34.4-1.1,53.3-2.9c19-1.8,49-8.6,49-8.6"/>
	<path fill="none" stroke="#FFFFFF" stroke-width="2" stroke-miterlimit="10" d="M87.3,245.9c0,0,30.2,7.9,47.8,9
		c17.6,1.1,38.7,2.1,54.5,1.9s34.1-1.1,52.9-2.9s48.5-8.6,48.5-8.6"/>
	<path fill="none" stroke="#FFFFFF" stroke-width="2" stroke-miterlimit="10" d="M89.4,256.5c0,0,29.6,7.9,46.8,9s38,2.1,53.4,1.9
		s33.4-1.1,51.8-2.9s47.6-8.6,47.6-8.6"/>
	<path fill="#FF0000" stroke="#FFFFFF" stroke-width="2" stroke-miterlimit="10" d="M271.9,374.6c-2.4,4.8-4.9,6.7-9.2,8.9
		c-4.3,2.2-18.5,8.2-42,11.5s-46.3,2.6-66.6-0.3c-20.3-2.9-34.4-7.9-41.1-12.8c-2.8-2.1-6.2-4.3-6.4-5.6"/>
</g>
</svg>
