<?xml version="1.0" encoding="utf-8"?>
<!-- Generator: Adobe Illustrator 18.1.0, SVG Export Plug-In . SVG Version: 6.00 Build 0)  -->
<!DOCTYPE svg PUBLIC "-//W3C//DTD SVG 1.1//EN" "http://www.w3.org/Graphics/SVG/1.1/DTD/svg11.dtd">
<svg version="1.1" id="Layer_1" xmlns="http://www.w3.org/2000/svg" xmlns:xlink="http://www.w3.org/1999/xlink" x="0px" y="0px"
	 viewBox="0 0 700 500" enable-background="new 0 0 700 500" xml:space="preserve">
<path fill="#FFFFFF" stroke="#FF0000" stroke-width="2" stroke-miterlimit="10" d="M627.7,419.5l-272.1-0.7l24.6-369.7h247.6
	c13.8,0,25,11.2,25,25v320.3C652.8,408.3,641.6,419.5,627.7,419.5z"/>
<path fill="#FFFFFF" stroke="#FF0000" stroke-width="2" stroke-miterlimit="10" d="M160.9,175.4c0,0,30.5-22.5,49.1-34.1
	c20.3-12.8,40.4-26.7,57.3-36.7c16.9-10,36.4-21,58.7-30.3c25.4-10.5,54.3-25.1,54.3-25.1s4.1,8.3,3.3,12.9s0.1,1.7,0.5,3.9
	c0.5,2.2-1.2,1.5-0.7,3.6c0.5,2.1,12.5,27.9,14,32.1c1.5,4.2,2.7,9.4,4.9,15.6s6.9,18.1,11.3,27.8c4.4,9.7,22.9,51,26.3,58.6
	c3.5,7.6,11.2,23.1,17.1,41c5.9,17.9,9.5,24,13.5,33.4s12.8,29.3,15,34.4c2.2,5.1-0.8,4.8,1.2,8.7c1.9,3.9,2.9,5.1,5.7,9.7
	s0.6,10.9-2,15c-2.6,4.1-12,16.4-30.6,31s-38.8,25.4-57.8,33c-19,7.7-33.7,10.1-42,9.4c-8.3-0.7-9-3.2-9.8-4.3
	c-0.8-1.1-2.3-3.8-4.1-7.9c-1.8-4.1-5.1-5.2-8.1-7.3c-3-2.1-1.8-1.6-10.6-14s-22.8-31.8-27.3-37c-4.5-5.2-14.7-17-21-25.4
	c-6.2-8.4-61.6-83.7-66.7-90.6c-5.1-6.9-7.2-6.2-10.3-10.5c-3-4.3-6.2-9.5-8.6-12.2c-2.4-2.7-4-3.7-6.9-7.6
	c-2.8-3.9-6.9-9.9-8.1-12.3s-2-0.7-3.4-2c-1.4-1.3-0.5-0.6-1.4-1.3c-0.9-0.7-6.7-3.5-9.5-6.4C162.1,178.5,161.9,177.6,160.9,175.4z"
	/>
</svg>
